<svg width="192" height="192" viewBox="0 0 24 24" fill="none" xmlns="http://www.w3.org/2000/svg">
  <rect width="24" height="24" rx="4" fill="#1f2937"/>
  <rect x="4" y="4" width="16" height="16" rx="2" fill="white"/>
  <rect x="6" y="6" width="4" height="2" rx="1" fill="#1f2937"/>
  <rect x="6" y="9" width="2" height="2" rx="1" fill="#1f2937"/>
  <rect x="9" y="9" width="2" height="2" rx="1" fill="#1f2937"/>
  <rect x="12" y="9" width="2" height="2" rx="1" fill="#1f2937"/>
  <rect x="15" y="9" width="2" height="2" rx="1" fill="#1f2937"/>
  <rect x="6" y="12" width="2" height="2" rx="1" fill="#1f2937"/>
  <rect x="9" y="12" width="2" height="2" rx="1" fill="#1f2937"/>
  <rect x="12" y="12" width="2" height="2" rx="1" fill="#1f2937"/>
  <rect x="15" y="12" width="2" height="5" rx="1" fill="#3b82f6"/>
  <rect x="6" y="15" width="2" height="2" rx="1" fill="#1f2937"/>
  <rect x="9" y="15" width="5" height="2" rx="1" fill="#3b82f6"/>
</svg>
